<svg xmlns="http://www.w3.org/2000/svg" viewBox="0 0 179.51 81">
  <g>
    <rect y="-141.5" width="1602.03" height="612" style="fill: none"/>
    <g>
      <path d="M47.64,31.87a11.77,11.77,0,0,0-4.69-1A11.43,11.43,0,0,0,31.36,42.16a11.15,11.15,0,0,0,5,9.23ZM33,46.24l1-.6a14.93,14.93,0,0,0,6.48-8.35,18.39,18.39,0,0,0,.63-5v-.65l0,0a2.59,2.59,0,0,1,.21.27c.14.19.27.39.39.59a3.26,3.26,0,0,1,.31.62c.1.22.17.43.25.65a9.41,9.41,0,0,1-3.79,10.91,10.07,10.07,0,0,1-4.08,1.5,4.2,4.2,0,0,1-1.41,0" style="fill: #fff"/>
      <path d="M49.48,32.86,38.16,52.4a11.91,11.91,0,0,0,4.79,1A11.43,11.43,0,0,0,54.56,42.16a11.15,11.15,0,0,0-5.08-9.3m-4,14a19.44,19.44,0,0,0-.84,5.23l0,.69-.05,0a2.83,2.83,0,0,1-.19-.29,5.27,5.27,0,0,1-.4-.64,4.88,4.88,0,0,1-.29-.66,5.68,5.68,0,0,1-.22-.7,10,10,0,0,1,4.34-11.32A10.54,10.54,0,0,1,52,37.7a4.66,4.66,0,0,1,1.46,0l-1,.6a15.72,15.72,0,0,0-7,8.54" style="fill: #fff"/>
      <path d="M77.84,51.24H72.75V49.37h-.07c-.44.71-1.74,2.43-5.34,2.43-5.42,0-9-4.06-9-9.28a8.78,8.78,0,0,1,8.86-9.22,6.91,6.91,0,0,1,5.25,2.07V23.05h5.35ZM68.21,47a4.38,4.38,0,0,0,4.57-4.47A4.53,4.53,0,1,0,68.21,47" style="fill: #fff"/>
      <polygon points="91.86 51.24 86.73 51.24 80.33 33.9 85.86 33.9 89.28 44.71 89.35 44.71 92.76 33.9 98.3 33.9 91.86 51.24" style="fill: #fff"/>
      <path d="M100.75,33.9h5v1.84h.06c.46-.84,1.39-2.44,4.48-2.44v5.22c-2.48.07-4.22.57-4.22,3.19v9.53h-5.35Z" style="fill: #fff"/>
      <path d="M113.13,33.9h5v1.9h.1a6.86,6.86,0,0,1,5.57-2.5c6.35,0,8.73,5.41,8.73,9.44,0,5-3.61,9.1-8.7,9.1a7,7,0,0,1-5.38-2.16V62.19h-5.34Zm14.08,8.68A4.48,4.48,0,1,0,122.73,47a4.4,4.4,0,0,0,4.48-4.41" style="fill: #fff"/>
      <path d="M153.66,44.65a9.49,9.49,0,0,1-9.38,7.15,9.26,9.26,0,1,1,9.35-11.22h-5.41a4,4,0,0,0-3.87-2.43,4.1,4.1,0,0,0-4.26,4.4,4.31,4.31,0,0,0,8.13,2.1Z" style="fill: #fff"/>
    </g>
  </g>
</svg>
